<svg version="1.1" id="Layer_1" xmlns="http://www.w3.org/2000/svg" xmlns:xlink="http://www.w3.org/1999/xlink" x="0px" y="0px"
	 width="100%" viewBox="0 0 408 408" enable-background="new 0 0 408 408" xml:space="preserve">
<path fill="#000000" opacity="1.000000" stroke="none" 
	d="
M192.000000,409.000000 
	C128.019455,409.000000 64.538902,409.000000 1.029176,409.000000 
	C1.029176,273.061127 1.029176,137.122223 1.029176,1.091663 
	C136.897186,1.091663 272.794434,1.091663 408.845856,1.091663 
	C408.845856,136.999863 408.845856,272.999908 408.845856,409.000000 
	C336.788971,409.000000 264.644470,409.000000 192.000000,409.000000 
M148.202011,113.934357 
	C138.534653,113.641708 128.861191,113.287590 118.812706,116.805588 
	C117.538635,117.160156 116.240250,117.444992 114.994026,117.879448 
	C80.724571,129.826508 71.157471,170.887726 97.466492,194.688370 
	C104.106506,200.695328 112.443398,204.826584 120.513725,210.321411 
	C129.949478,214.905304 139.385239,219.489197 149.189743,224.644806 
	C168.733627,235.695526 167.162033,267.899933 144.251709,276.358612 
	C133.354935,280.501770 122.629639,279.010376 111.374992,274.956726 
	C103.809265,272.112885 99.069756,266.258209 95.367882,259.492157 
	C92.109932,253.537491 89.250542,247.365448 86.168411,241.313202 
	C85.639633,240.274872 84.876778,239.355743 83.387001,237.139008 
	C82.722839,240.151199 82.150200,241.663986 82.091354,243.196518 
	C81.779602,251.315613 81.778267,259.450745 81.284660,267.556885 
	C81.072968,271.033417 82.398582,272.922424 85.452415,273.846924 
	C94.283752,276.520569 103.137100,279.121490 112.775734,281.980377 
	C123.519234,282.219910 134.262741,282.459473 145.802490,282.778503 
	C156.654907,281.211151 167.135239,278.635193 176.585403,271.419891 
	C179.001022,269.147125 181.561768,267.008667 183.809265,264.580292 
	C201.313461,245.667404 197.280655,211.460587 175.673859,197.392715 
	C168.032364,193.087524 160.390884,188.782318 152.161606,184.062607 
	C141.280411,179.230850 130.010223,175.095551 120.860031,166.103104 
	C110.321579,154.500687 110.384949,138.740036 121.681335,125.840683 
	C129.625916,119.070580 139.088043,118.050209 149.730438,118.882103 
	C155.426300,121.420753 161.122177,123.959404 166.926590,127.155251 
	C172.693802,136.701920 178.461014,146.248581 184.228226,155.795258 
	C184.803696,155.628113 185.379166,155.460968 185.954636,155.293839 
	C186.388519,146.135269 186.918503,136.978851 187.122467,127.815170 
	C187.145386,126.786087 185.518906,125.301689 184.322723,124.736435 
	C179.105835,122.271187 173.765335,120.067520 167.888168,117.278809 
	C161.588638,116.225990 155.289108,115.173172 148.202011,113.934357 
M310.793091,272.860992 
	C318.167480,266.498901 322.992218,258.499329 326.023407,249.316254 
	C330.882446,234.595764 331.050323,219.532455 328.577789,204.484756 
	C326.407593,191.277008 321.607788,179.179062 309.773438,170.354904 
	C303.035767,165.356155 295.464600,162.823532 286.321106,162.417801 
	C276.815796,164.087128 267.310455,165.756454 257.075745,167.613327 
	C253.408493,169.328278 249.741241,171.043243 245.631180,172.965271 
	C245.067474,171.110901 244.533493,169.427612 244.044754,167.731262 
	C243.022598,164.183594 241.224701,162.285492 237.237045,164.051788 
	C234.092682,165.444550 230.830887,166.572220 226.878021,167.876831 
	C217.583649,171.161026 208.289261,174.445221 197.612564,178.217865 
	C200.180908,179.545212 201.109024,180.197357 202.140213,180.530365 
	C209.958405,183.055099 211.142303,184.434860 211.151245,192.576355 
	C211.198624,235.738800 211.132721,278.901428 211.229782,322.063721 
	C211.244095,328.431976 208.576157,332.461639 202.635635,334.569885 
	C201.378815,335.015930 200.321609,336.024475 199.172440,336.773834 
	C199.337189,337.140076 199.501953,337.506287 199.666702,337.872498 
	C209.777298,337.872498 219.887878,337.872498 230.924545,338.028625 
	C240.069061,338.028625 249.213577,338.028625 258.358093,338.028625 
	C258.470581,337.460388 258.583069,336.892151 258.695587,336.323914 
	C257.057007,335.591217 255.465866,334.715515 253.770691,334.153534 
	C249.256805,332.657166 245.990036,329.705383 245.907181,324.962524 
	C245.638214,309.568390 245.806610,294.166626 245.806610,278.490265 
	C249.377838,279.336365 252.697250,280.122772 256.668091,281.336334 
	C266.382477,283.000885 276.054871,285.421112 286.816376,283.018860 
	C295.405731,281.591736 303.580170,279.192657 310.793091,272.860992 
z"/>
<path fill="#6794EF" opacity="1.000000" stroke="none" 
	d="
M229.998474,337.872498 
	C219.887878,337.872498 209.777298,337.872498 199.666702,337.872498 
	C199.501953,337.506287 199.337189,337.140076 199.172440,336.773834 
	C200.321609,336.024475 201.378815,335.015930 202.635635,334.569885 
	C208.576157,332.461639 211.244095,328.431976 211.229782,322.063721 
	C211.132721,278.901428 211.198624,235.738800 211.151245,192.576355 
	C211.142303,184.434860 209.958405,183.055099 202.140213,180.530365 
	C201.109024,180.197357 200.180908,179.545212 197.612564,178.217865 
	C208.289261,174.445221 217.583649,171.161026 227.556519,168.101227 
	C232.489685,177.495956 230.824585,187.144928 230.605057,196.697845 
	C230.379990,206.491165 230.340134,216.289230 230.277237,226.085602 
	C230.228409,233.691635 230.261673,241.298279 230.271347,248.904617 
	C230.283417,258.378235 230.314148,267.851837 230.326614,277.325470 
	C230.336395,284.770538 230.339371,292.215607 230.329697,299.660675 
	C230.317383,309.133972 230.309937,318.607391 230.256577,328.080505 
	C230.238174,331.344879 230.088287,334.608521 229.998474,337.872498 
z"/>
<path fill="#678DEF" opacity="1.000000" stroke="none" 
	d="
M230.461517,337.950562 
	C230.088287,334.608521 230.238174,331.344879 230.256577,328.080505 
	C230.309937,318.607391 230.317383,309.133972 230.329697,299.660675 
	C230.339371,292.215607 230.336395,284.770538 230.326614,277.325470 
	C230.314148,267.851837 230.283417,258.378235 230.271347,248.904617 
	C230.261673,241.298279 230.228409,233.691635 230.277237,226.085602 
	C230.340134,216.289230 230.379990,206.491165 230.605057,196.697845 
	C230.824585,187.144928 232.489685,177.495956 227.928146,168.071625 
	C230.830887,166.572220 234.092682,165.444550 237.237045,164.051788 
	C241.224701,162.285492 243.022598,164.183594 244.044754,167.731262 
	C244.533493,169.427612 245.067474,171.110901 245.631180,172.965271 
	C249.741241,171.043243 253.408493,169.328278 257.598206,167.919586 
	C258.457245,169.608887 258.793884,170.991943 258.826385,172.577835 
	C257.868073,172.894592 257.121429,172.843109 256.574402,173.148834 
	C252.564255,175.390152 246.168594,175.277023 246.130005,181.751587 
	C245.957352,210.712204 246.079269,239.674484 246.025345,268.636017 
	C246.017471,272.867920 248.379135,274.413116 252.091995,274.804321 
	C253.392014,274.941315 254.692444,275.074615 255.992859,275.616394 
	C256.000916,277.651855 256.008789,279.280548 256.016663,280.909210 
	C252.697250,280.122772 249.377838,279.336365 245.806610,278.490265 
	C245.806610,294.166626 245.638214,309.568390 245.907181,324.962524 
	C245.990036,329.705383 249.256805,332.657166 253.770691,334.153534 
	C255.465866,334.715515 257.057007,335.591217 258.695587,336.323914 
	C258.583069,336.892151 258.470581,337.460388 258.358093,338.028625 
	C249.213577,338.028625 240.069061,338.028625 230.461517,337.950562 
z"/>
<path fill="#6BBEF2" opacity="1.000000" stroke="none" 
	d="
M120.000519,209.819778 
	C112.443398,204.826584 104.106506,200.695328 97.466492,194.688370 
	C71.157471,170.887726 80.724571,129.826508 114.994026,117.879448 
	C116.240250,117.444992 117.538635,117.160156 119.484474,117.098694 
	C120.444519,120.279922 120.732788,123.168053 121.021057,126.056183 
	C110.384949,138.740036 110.321579,154.500687 120.960594,166.897186 
	C121.041077,176.140640 121.137070,184.592438 120.959961,193.038498 
	C120.842583,198.636505 120.333984,204.226303 120.000519,209.819778 
z"/>
<path fill="#6578EF" opacity="1.000000" stroke="none" 
	d="
M287.083862,162.686111 
	C295.464600,162.823532 303.035767,165.356155 309.612183,170.881165 
	C308.967987,173.263947 308.113434,175.111496 308.068420,176.978577 
	C307.901367,183.909241 307.891357,190.848419 308.023804,197.780548 
	C308.271484,210.744797 308.885376,223.705795 308.918060,236.669220 
	C308.944000,246.965668 308.218201,257.262512 308.105774,267.562225 
	C308.085846,269.385101 309.438965,271.222992 310.158081,273.053955 
	C303.580170,279.192657 295.405731,281.591736 286.408051,282.547424 
	C285.308105,277.042511 284.616486,272.009003 284.015564,266.633240 
	C285.403290,263.793488 287.020050,261.408508 287.945587,258.780151 
	C294.064301,241.403641 293.933350,223.415726 291.904999,205.510284 
	C291.006592,197.579681 287.817047,189.908615 286.047607,181.976974 
	C286.897491,179.388672 287.723419,176.947861 287.755920,174.496521 
	C287.808044,170.563385 287.334991,166.623276 287.083862,162.686111 
z"/>
<path fill="#69A8F0" opacity="1.000000" stroke="none" 
	d="
M152.749390,184.477127 
	C160.390884,188.782318 168.032364,193.087524 175.838562,198.128174 
	C176.022385,208.114807 175.942062,217.367661 176.097641,226.616531 
	C176.192307,232.243881 177.573196,238.005798 176.741425,243.457855 
	C175.302109,252.891861 174.366791,262.192505 175.986526,271.643372 
	C167.135239,278.635193 156.654907,281.211151 145.404327,282.335938 
	C145.007187,280.011169 145.008224,278.128937 145.009262,276.246735 
	C167.162033,267.899933 168.733627,235.695526 149.365112,224.217560 
	C149.991333,222.486115 150.815002,221.187347 150.834015,219.876877 
	C150.986145,209.390930 150.926270,198.901764 151.107712,188.416626 
	C151.130600,187.094391 152.177139,185.789856 152.749390,184.477127 
z"/>
<path fill="#6572EF" opacity="1.000000" stroke="none" 
	d="
M310.475586,272.957458 
	C309.438965,271.222992 308.085846,269.385101 308.105774,267.562225 
	C308.218201,257.262512 308.944000,246.965668 308.918060,236.669220 
	C308.885376,223.705795 308.271484,210.744797 308.023804,197.780548 
	C307.891357,190.848419 307.901367,183.909241 308.068420,176.978577 
	C308.113434,175.111496 308.967987,173.263947 309.773193,171.182922 
	C321.607788,179.179062 326.407593,191.277008 328.577789,204.484756 
	C331.050323,219.532455 330.882446,234.595764 326.023407,249.316254 
	C322.992218,258.499329 318.167480,266.498901 310.475586,272.957458 
z"/>
<path fill="#6AB3F2" opacity="1.000000" stroke="none" 
	d="
M152.455505,184.269867 
	C152.177139,185.789856 151.130600,187.094391 151.107712,188.416626 
	C150.926270,198.901764 150.986145,209.390930 150.834015,219.876877 
	C150.815002,221.187347 149.991333,222.486115 149.180756,223.931702 
	C139.385239,219.489197 129.949478,214.905304 120.257126,210.070587 
	C120.333984,204.226303 120.842583,198.636505 120.959961,193.038498 
	C121.137070,184.592438 121.041077,176.140640 121.085144,167.204971 
	C130.010223,175.095551 141.280411,179.230850 152.455505,184.269867 
z"/>
<path fill="#68A0EF" opacity="1.000000" stroke="none" 
	d="
M176.285965,271.531616 
	C174.366791,262.192505 175.302109,252.891861 176.741425,243.457855 
	C177.573196,238.005798 176.192307,232.243881 176.097641,226.616531 
	C175.942062,217.367661 176.022385,208.114807 176.006317,198.417877 
	C197.280655,211.460587 201.313461,245.667404 183.809265,264.580292 
	C181.561768,267.008667 179.001022,269.147125 176.285965,271.531616 
z"/>
<path fill="#69BEED" opacity="1.000000" stroke="none" 
	d="
M111.981812,281.750946 
	C103.137100,279.121490 94.283752,276.520569 85.452415,273.846924 
	C82.398582,272.922424 81.072968,271.033417 81.284660,267.556885 
	C81.778267,259.450745 81.779602,251.315613 82.091354,243.196518 
	C82.150200,241.663986 82.722839,240.151199 83.387001,237.139008 
	C84.876778,239.355743 85.639633,240.274872 86.168411,241.313202 
	C89.250542,247.365448 92.109932,253.537491 95.367882,259.492157 
	C99.069756,266.258209 103.809265,272.112885 111.676620,275.564056 
	C111.979431,278.031250 111.980621,279.891083 111.981812,281.750946 
z"/>
<path fill="#68A1EE" opacity="1.000000" stroke="none" 
	d="
M168.469711,117.768860 
	C173.765335,120.067520 179.105835,122.271187 184.322723,124.736435 
	C185.518906,125.301689 187.145386,126.786087 187.122467,127.815170 
	C186.918503,136.978851 186.388519,146.135269 185.954636,155.293839 
	C185.379166,155.460968 184.803696,155.628113 184.228226,155.795258 
	C178.461014,146.248581 172.693802,136.701920 166.905579,126.352829 
	C167.412949,122.956551 167.941330,120.362709 168.469711,117.768860 
z"/>
<path fill="#647DEA" opacity="1.000000" stroke="none" 
	d="
M286.702515,162.551956 
	C287.334991,166.623276 287.808044,170.563385 287.755920,174.496521 
	C287.723419,176.947861 286.897491,179.388672 285.779297,181.788803 
	C278.806702,172.119156 269.669830,170.300903 259.130493,172.374985 
	C258.793884,170.991943 258.457245,169.608887 257.962891,167.825806 
	C267.310455,165.756454 276.815796,164.087128 286.702515,162.551956 
z"/>
<path fill="#6681EE" opacity="1.000000" stroke="none" 
	d="
M283.924866,266.975494 
	C284.616486,272.009003 285.308105,277.042511 285.998962,282.521332 
	C276.054871,285.421112 266.382477,283.000885 256.342377,281.122772 
	C256.008789,279.280548 256.000916,277.651855 256.407990,275.607483 
	C267.448517,277.703064 276.664185,275.563599 283.924866,266.975494 
z"/>
<path fill="#65ADE5" opacity="1.000000" stroke="none" 
	d="
M112.378769,281.865662 
	C111.980621,279.891083 111.979431,278.031250 111.973892,275.773804 
	C122.629639,279.010376 133.354935,280.501770 144.630493,276.302673 
	C145.008224,278.128937 145.007187,280.011169 145.006195,282.296204 
	C134.262741,282.459473 123.519234,282.219910 112.378769,281.865662 
z"/>
<path fill="#67AFEA" opacity="1.000000" stroke="none" 
	d="
M121.351196,125.948433 
	C120.732788,123.168053 120.444519,120.279922 119.861961,117.080910 
	C128.861191,113.287590 138.534653,113.641708 148.605316,114.403854 
	C148.997223,116.127960 148.985809,117.382568 148.974396,118.637177 
	C139.088043,118.050209 129.625916,119.070580 121.351196,125.948433 
z"/>
<path fill="#629FE2" opacity="1.000000" stroke="none" 
	d="
M149.352417,118.759644 
	C148.985809,117.382568 148.997223,116.127960 148.999115,114.496857 
	C155.289108,115.173172 161.588638,116.225990 168.178940,117.523834 
	C167.941330,120.362709 167.412949,122.956551 166.851303,126.024231 
	C161.122177,123.959404 155.426300,121.420753 149.352417,118.759644 
z"/>
<path fill="#010102" opacity="1.000000" stroke="none" 
	d="
M284.015564,266.633240 
	C276.664185,275.563599 267.448517,277.703064 256.407806,275.200684 
	C254.692444,275.074615 253.392014,274.941315 252.091995,274.804321 
	C248.379135,274.413116 246.017471,272.867920 246.025345,268.636017 
	C246.079269,239.674484 245.957352,210.712204 246.130005,181.751587 
	C246.168594,175.277023 252.564255,175.390152 256.574402,173.148834 
	C257.121429,172.843109 257.868073,172.894592 258.826385,172.577835 
	C269.669830,170.300903 278.806702,172.119156 285.399261,181.931564 
	C287.817047,189.908615 291.006592,197.579681 291.904999,205.510284 
	C293.933350,223.415726 294.064301,241.403641 287.945587,258.780151 
	C287.020050,261.408508 285.403290,263.793488 284.015564,266.633240 
z"/>
</svg>